<?xml version="1.0" encoding="UTF-8" standalone="no"?>
<!-- Created with Inkscape (http://www.inkscape.org/) -->

<svg
   xmlns:dc="http://purl.org/dc/elements/1.1/"
   xmlns:cc="http://creativecommons.org/ns#"
   xmlns:rdf="http://www.w3.org/1999/02/22-rdf-syntax-ns#"
   xmlns:svg="http://www.w3.org/2000/svg"
   xmlns="http://www.w3.org/2000/svg"
   xmlns:sodipodi="http://sodipodi.sourceforge.net/DTD/sodipodi-0.dtd"
   xmlns:inkscape="http://www.inkscape.org/namespaces/inkscape"
   inkscape:version="0.48.3.1 r9886"
   version="1.1"
   id="svg2"
   height="1237.9264"
   width="745.84827"
   sodipodi:docname="crocodile.svg">
  <defs
     id="defs4" />
  <sodipodi:namedview
     id="base"
     pagecolor="#ffffff"
     bordercolor="#666666"
     borderopacity="1.0"
     inkscape:pageopacity="0.0"
     inkscape:pageshadow="2"
     inkscape:zoom="1"
     inkscape:cx="215.92564"
     inkscape:cy="554.18122"
     inkscape:document-units="px"
     inkscape:current-layer="layer1"
     showgrid="false"
     inkscape:window-width="1246"
     inkscape:window-height="992"
     inkscape:window-x="569"
     inkscape:window-y="106"
     inkscape:window-maximized="0"
     showborder="true"
     fit-margin-top="0"
     fit-margin-left="0"
     fit-margin-right="0"
     fit-margin-bottom="0" />
  <metadata
     id="metadata7">
    <rdf:RDF>
      <cc:Work
         rdf:about="">
        <dc:format>image/svg+xml</dc:format>
        <dc:type
           rdf:resource="http://purl.org/dc/dcmitype/StillImage" />
        <dc:title />
      </cc:Work>
    </rdf:RDF>
  </metadata>
  <g
     inkscape:label="Layer 1"
     inkscape:groupmode="layer"
     id="layer1"
     transform="translate(5.838332,3.1378133)"
     style="display:inline">
    <path
       inkscape:connector-curvature="0"
       style="color:#000000;fill:#6ceb29;fill-opacity:1;fill-rule:evenodd;stroke:none;stroke-width:3.75;marker:none;visibility:visible;display:inline;overflow:visible;enable-background:accumulate"
       d="m 220.2381,183.43362 0,114.28568 203.17455,0 0,-114.28568 -203.17455,0 z"
       id="path2824-5-4-3" />
    <path
       inkscape:connector-curvature="0"
       style="color:#000000;fill:#6cb229;fill-opacity:1;fill-rule:evenodd;stroke:none;stroke-width:3.75;marker:none;visibility:visible;display:inline;overflow:visible;enable-background:accumulate"
       d="m 423.41265,185.02092 c -24.66676,6.1073 -44.60317,29.42067 -44.60317,55.55554 0,26.13493 19.93641,49.44824 44.60317,55.55554 l 0,-6.98412 c -16.46438,-10.27284 -28.09523,-28.61787 -28.09523,-48.57142 0,-19.95352 11.63085,-38.29858 28.09523,-48.57142 l 0,-6.98412 z"
       id="path2824-5-4-5-2-1-2" />
    <path
       inkscape:connector-curvature="0"
       style="color:#000000;fill:#6cb229;fill-opacity:1;fill-rule:evenodd;stroke:none;stroke-width:3.75;marker:none;visibility:visible;display:inline;overflow:visible;enable-background:accumulate"
       d="m 334.39337,297.71935 c -30.10844,0 -57.14284,-26.68017 -57.14284,-57.14284 0,-30.46262 27.0344,-57.14284 57.14284,-57.14284 l 16.50793,0 c -30.10844,0 -57.14284,26.68022 -57.14284,57.14284 0,30.46267 27.0344,57.14284 57.14284,57.14284 l -16.50793,0 z"
       id="path2824-5-4-5-17-4-7" />
    <path
       inkscape:connector-curvature="0"
       style="color:#000000;fill:#6cb229;fill-opacity:1;fill-rule:evenodd;stroke:none;stroke-width:3.75;marker:none;visibility:visible;display:inline;overflow:visible;enable-background:accumulate"
       d="m 232.77777,183.43362 c -4.27743,0 -8.45503,0.57597 -12.53967,1.5873 l 0,6.98412 c 8.67146,-5.41048 18.66069,-8.57142 29.04761,-8.57142 l -16.50794,0 z m -12.53967,105.71426 0,6.98412 c 4.08464,1.01133 8.26224,1.5873 12.53967,1.5873 l 16.50794,0 c -10.38692,0 -20.37615,-3.16094 -29.04761,-8.57142 z"
       id="path2824-5-4-5-1-2-3" />
    <path
       inkscape:connector-curvature="0"
       style="color:#000000;fill:#6ceb29;fill-opacity:1;fill-rule:evenodd;stroke:none;stroke-width:3.75;marker:none;visibility:visible;display:inline;overflow:visible;enable-background:accumulate"
       d="m 175.78696,195.57644 c -12.45018,10.79401 -20.85423,27.23277 -20.85423,45 0,17.76729 8.40405,34.206 20.85423,45 l 0,-90 z"
       id="path2824-5-4-8-6" />
    <path
       inkscape:connector-curvature="0"
       style="font-size:medium;font-style:normal;font-variant:normal;font-weight:normal;font-stretch:normal;text-indent:0;text-align:start;text-decoration:none;line-height:normal;letter-spacing:normal;word-spacing:normal;text-transform:none;direction:ltr;block-progression:tb;writing-mode:lr-tb;text-anchor:start;color:#000000;fill:#000000;fill-opacity:1;fill-rule:nonzero;stroke:none;stroke-width:1;marker:none;visibility:visible;display:inline;overflow:visible;enable-background:accumulate;font-family:Andale Mono;-inkscape-font-specification:Andale Mono"
       d="m 151.38307,210.39512 c -5.53353,0 -10.05736,4.9157 -10.05736,10.92858 0,6.01287 4.52383,10.84821 10.05736,10.84821 5.53354,0 10.05736,-4.83534 10.05736,-10.84821 0,-6.01288 -4.52382,-10.92858 -10.05736,-10.92858 z m 0,2.57143 c 4.25462,0 7.69093,3.73397 7.69093,8.35715 0,4.62317 -3.43631,8.27678 -7.69093,8.27678 -4.25461,0 -7.69092,-3.65361 -7.69092,-8.27678 0,-4.62318 3.43631,-8.35715 7.69092,-8.35715 z"
       id="path3689-7-1-22-0" />
    <path
       inkscape:connector-curvature="0"
       style="font-size:medium;font-style:normal;font-variant:normal;font-weight:normal;font-stretch:normal;text-indent:0;text-align:start;text-decoration:none;line-height:normal;letter-spacing:normal;word-spacing:normal;text-transform:none;direction:ltr;block-progression:tb;writing-mode:lr-tb;text-anchor:start;color:#000000;fill:#000000;fill-opacity:1;fill-rule:nonzero;stroke:none;stroke-width:1;marker:none;visibility:visible;display:inline;overflow:visible;enable-background:accumulate;font-family:Andale Mono;-inkscape-font-specification:Andale Mono"
       d="m 151.38307,248.96655 c -5.53353,0 -10.05736,4.9157 -10.05736,10.92857 0,6.01288 4.52383,10.84822 10.05736,10.84822 5.53354,0 10.05736,-4.83534 10.05736,-10.84822 0,-6.01287 -4.52382,-10.92857 -10.05736,-10.92857 z m 0,2.57143 c 4.25462,0 7.69093,3.73397 7.69093,8.35714 0,4.62318 -3.43631,8.27679 -7.69093,8.27679 -4.25461,0 -7.69092,-3.65361 -7.69092,-8.27679 0,-4.62317 3.43631,-8.35714 7.69092,-8.35714 z"
       id="path3689-7-1-5-3-9" />
    <path
       inkscape:connector-curvature="0"
       style="color:#000000;fill:#6ceb29;fill-opacity:1;fill-rule:evenodd;stroke:none;stroke-width:3.75;marker:none;visibility:visible;display:inline;overflow:visible;enable-background:accumulate"
       d="m 208.05606,182.71933 c -11.89384,0 -23.22765,4.91307 -32.39062,12.85714 l 0,90 c 9.16297,7.94407 20.49678,12.85714 32.39062,12.85714 l 12.7196,0 0,-115.71428 -12.7196,0 z"
       id="path2824-5-4-2-0" />
    <path
       inkscape:connector-curvature="0"
       style="color:#000000;fill:#6cb229;fill-opacity:1;fill-rule:evenodd;stroke:none;stroke-width:3.75;marker:none;visibility:visible;display:inline;overflow:visible;enable-background:accumulate"
       d="m 220.74927,184.32644 c -22.98412,6.18365 -41.56056,29.78844 -41.56056,56.25 0,26.46162 18.57644,50.06636 41.56056,56.25 l 0,-7.07142 c -15.34126,-10.40125 -26.17871,-28.97561 -26.17871,-49.17858 0,-20.20294 10.83745,-38.77732 26.17871,-49.17857 l 0,-7.07143 z"
       id="path2824-5-4-5-1-2-21-5" />
    <path
       sodipodi:type="arc"
       style="fill:#ff0000;stroke:#000000;stroke-width:1px;stroke-linecap:butt;stroke-linejoin:miter;stroke-opacity:1"
       id="path2985-9-6"
       sodipodi:cx="110"
       sodipodi:cy="122.36218"
       sodipodi:rx="44.285713"
       sodipodi:ry="44.285713"
       d="m 154.28571,122.36218 a 44.285713,44.285713 0 1 1 -88.571423,0 44.285713,44.285713 0 1 1 88.571423,0 z"
       transform="matrix(1.3349282,0,0,1.3349282,-47.91353,-105.6254)" />
    <path
       sodipodi:type="arc"
       style="fill:#ff0000;stroke:#000000;stroke-width:1px;stroke-linecap:butt;stroke-linejoin:miter;stroke-opacity:1"
       id="path2985-9-8-1"
       sodipodi:cx="110"
       sodipodi:cy="122.36218"
       sodipodi:rx="44.285713"
       sodipodi:ry="44.285713"
       d="m 154.28571,122.36218 a 44.285713,44.285713 0 1 1 -88.571423,0 44.285713,44.285713 0 1 1 88.571423,0 z"
       transform="matrix(1.3349282,0,0,1.3349282,31.37219,-106.69683)" />
    <path
       sodipodi:type="arc"
       style="fill:#ff0000;stroke:#000000;stroke-width:1px;stroke-linecap:butt;stroke-linejoin:miter;stroke-opacity:1"
       id="path2985-9-8-0-8"
       sodipodi:cx="110"
       sodipodi:cy="122.36218"
       sodipodi:rx="44.285713"
       sodipodi:ry="44.285713"
       d="m 154.28571,122.36218 a 44.285713,44.285713 0 1 1 -88.571423,0 44.285713,44.285713 0 1 1 88.571423,0 z"
       transform="matrix(1.3349282,0,0,1.3349282,98.51505,-105.26826)" />
    <path
       inkscape:connector-curvature="0"
       style="color:#000000;fill:#6ceb29;fill-opacity:1;fill-rule:evenodd;stroke:none;stroke-width:3.75;marker:none;visibility:visible;display:inline;overflow:visible;enable-background:accumulate"
       d="m 218.47984,315.44334 0,114.28568 203.17455,0 0,-114.28568 -203.17455,0 z"
       id="path2824-5-4-3-0" />
    <path
       inkscape:connector-curvature="0"
       style="color:#000000;fill:#6cb229;fill-opacity:1;fill-rule:evenodd;stroke:none;stroke-width:3.75;marker:none;visibility:visible;display:inline;overflow:visible;enable-background:accumulate"
       d="m 421.65439,317.03064 c -24.66676,6.1073 -44.60317,29.42067 -44.60317,55.55554 0,26.13493 19.93641,49.44824 44.60317,55.55554 l 0,-6.98412 c -16.46438,-10.27284 -28.09523,-28.61787 -28.09523,-48.57142 0,-19.95352 11.63085,-38.29858 28.09523,-48.57142 l 0,-6.98412 z"
       id="path2824-5-4-5-2-1-2-6" />
    <path
       inkscape:connector-curvature="0"
       style="color:#000000;fill:#6cb229;fill-opacity:1;fill-rule:evenodd;stroke:none;stroke-width:3.75;marker:none;visibility:visible;display:inline;overflow:visible;enable-background:accumulate"
       d="m 231.01951,315.44334 c -4.27743,0 -8.45503,0.57597 -12.53967,1.5873 l 0,6.98412 c 8.67146,-5.41048 18.66069,-8.57142 29.04761,-8.57142 l -16.50794,0 z m -12.53967,105.71426 0,6.98412 c 4.08464,1.01133 8.26224,1.5873 12.53967,1.5873 l 16.50794,0 c -10.38692,0 -20.37615,-3.16094 -29.04761,-8.57142 z"
       id="path2824-5-4-5-1-2-3-6" />
    <path
       inkscape:connector-curvature="0"
       id="path2824-3-7-4"
       d="m 130.12808,372.58619 c 0,31.7476 -21.67924,57.48411 -48.421904,57.48411 -26.742707,0 -48.421926,-25.73651 -48.421926,-57.48411 0,-31.74758 21.679219,-57.48408 48.421926,-57.48408 26.742664,0 48.421904,25.7365 48.421904,57.48408 z"
       style="color:#000000;fill:#6ceb29;fill-opacity:1;fill-rule:evenodd;stroke:none;stroke-width:3.75;marker:none;visibility:visible;display:inline;overflow:visible;enable-background:accumulate" />
    <path
       inkscape:connector-curvature="0"
       style="color:#000000;fill:#6ceb29;fill-opacity:1;fill-rule:evenodd;stroke:none;stroke-width:3.75;marker:none;visibility:visible;display:inline;overflow:visible;enable-background:accumulate"
       d="m 174.0287,327.58616 c -12.45018,10.79401 -20.85423,27.23277 -20.85423,45 0,17.76729 8.40405,34.206 20.85423,45 l 0,-90 z"
       id="path2824-5-4-8-6-1" />
    <path
       inkscape:connector-curvature="0"
       style="font-size:medium;font-style:normal;font-variant:normal;font-weight:normal;font-stretch:normal;text-indent:0;text-align:start;text-decoration:none;line-height:normal;letter-spacing:normal;word-spacing:normal;text-transform:none;direction:ltr;block-progression:tb;writing-mode:lr-tb;text-anchor:start;color:#000000;fill:#ff4f00;fill-opacity:1;stroke:none;stroke-width:2.20000005;marker:none;visibility:visible;display:inline;overflow:visible;enable-background:accumulate;font-family:Andale Mono;-inkscape-font-specification:Andale Mono"
       d="m 57.347915,359.72905 c 3.885809,0 7.1146,-3.45893 7.1146,-7.68135 0,-4.22241 -3.228791,-7.68134 -7.1146,-7.68134 -3.885808,0 -7.068998,3.45893 -7.068998,7.68134 0,4.22242 3.18319,7.68135 7.068998,7.68135 z m 0,-3.46899 c -2.150642,0 -3.830954,-1.87542 -3.830954,-4.21236 0,-2.33694 1.680312,-4.16278 3.830954,-4.16278 2.150642,0 3.876556,1.82584 3.876556,4.16278 0,2.33694 -1.725914,4.21236 -3.876556,4.21236 z"
       id="path3689-6-4-2" />
    <path
       inkscape:connector-curvature="0"
       style="font-size:medium;font-style:normal;font-variant:normal;font-weight:normal;font-stretch:normal;text-indent:0;text-align:start;text-decoration:none;line-height:normal;letter-spacing:normal;word-spacing:normal;text-transform:none;direction:ltr;block-progression:tb;writing-mode:lr-tb;text-anchor:start;color:#000000;fill:#ff4f00;fill-opacity:1;stroke:none;stroke-width:2.20000005;marker:none;visibility:visible;display:inline;overflow:visible;enable-background:accumulate;font-family:Andale Mono;-inkscape-font-specification:Andale Mono"
       d="m 57.393706,385.44333 c -3.919128,0 -7.175607,3.48858 -7.175607,7.74723 0,4.25864 3.256479,7.74722 7.175607,7.74722 3.919152,0 7.129626,-3.48858 7.129626,-7.74722 0,-4.25865 -3.210474,-7.74723 -7.129626,-7.74723 z m 0,3.49874 c 2.1691,0 3.863801,1.89152 3.863801,4.24849 0,2.35697 -1.694701,4.1985 -3.863801,4.1985 -2.169077,0 -3.909781,-1.84153 -3.909781,-4.1985 0,-2.35697 1.740704,-4.24849 3.909781,-4.24849 z"
       id="path3689-7-0-3-9" />
    <path
       inkscape:connector-curvature="0"
       id="path2824-5-6-8-0-5"
       d="m 149.18111,372.58619 c 0,21.30241 -10.47795,38.57143 -23.40313,38.57143 -12.92518,0 -23.4031,-17.26902 -23.4031,-38.57143 0,-21.30241 10.47792,-38.57143 23.4031,-38.57143 12.92518,0 23.40313,17.26902 23.40313,38.57143 z"
       style="color:#000000;fill:#6cb229;fill-opacity:1;fill-rule:evenodd;stroke:none;stroke-width:3.75;marker:none;visibility:visible;display:inline;overflow:visible;enable-background:accumulate" />
    <path
       inkscape:connector-curvature="0"
       id="path2824-5-9-3-8"
       d="m 176.27362,372.58619 c 0,27.25701 -14.7159,49.3532 -32.86887,49.3532 -18.15297,0 -32.86886,-22.09619 -32.86886,-49.3532 0,-27.25699 14.71589,-49.35315 32.86886,-49.35315 18.15297,0 32.86887,22.09616 32.86887,49.35315 z"
       style="color:#000000;fill:#6ceb29;fill-opacity:1;fill-rule:evenodd;stroke:none;stroke-width:3.75;marker:none;visibility:visible;display:inline;overflow:visible;enable-background:accumulate" />
    <path
       inkscape:connector-curvature="0"
       style="font-size:medium;font-style:normal;font-variant:normal;font-weight:normal;font-stretch:normal;text-indent:0;text-align:start;text-decoration:none;line-height:normal;letter-spacing:normal;word-spacing:normal;text-transform:none;direction:ltr;block-progression:tb;writing-mode:lr-tb;text-anchor:start;color:#000000;fill:#000000;fill-opacity:1;fill-rule:nonzero;stroke:none;stroke-width:1;marker:none;visibility:visible;display:inline;overflow:visible;enable-background:accumulate;font-family:Andale Mono;-inkscape-font-specification:Andale Mono"
       d="m 149.62481,342.40484 c -5.53353,0 -10.05736,4.9157 -10.05736,10.92858 0,6.01287 4.52383,10.84821 10.05736,10.84821 5.53354,0 10.05736,-4.83534 10.05736,-10.84821 0,-6.01288 -4.52382,-10.92858 -10.05736,-10.92858 z m 0,2.57143 c 4.25462,0 7.69093,3.73397 7.69093,8.35715 0,4.62317 -3.43631,8.27678 -7.69093,8.27678 -4.25461,0 -7.69092,-3.65361 -7.69092,-8.27678 0,-4.62318 3.43631,-8.35715 7.69092,-8.35715 z"
       id="path3689-7-1-22-0-2" />
    <path
       inkscape:connector-curvature="0"
       style="font-size:medium;font-style:normal;font-variant:normal;font-weight:normal;font-stretch:normal;text-indent:0;text-align:start;text-decoration:none;line-height:normal;letter-spacing:normal;word-spacing:normal;text-transform:none;direction:ltr;block-progression:tb;writing-mode:lr-tb;text-anchor:start;color:#000000;fill:#000000;fill-opacity:1;fill-rule:nonzero;stroke:none;stroke-width:1;marker:none;visibility:visible;display:inline;overflow:visible;enable-background:accumulate;font-family:Andale Mono;-inkscape-font-specification:Andale Mono"
       d="m 149.62481,380.97627 c -5.53353,0 -10.05736,4.9157 -10.05736,10.92857 0,6.01288 4.52383,10.84822 10.05736,10.84822 5.53354,0 10.05736,-4.83534 10.05736,-10.84822 0,-6.01287 -4.52382,-10.92857 -10.05736,-10.92857 z m 0,2.57143 c 4.25462,0 7.69093,3.73397 7.69093,8.35714 0,4.62318 -3.43631,8.27679 -7.69093,8.27679 -4.25461,0 -7.69092,-3.65361 -7.69092,-8.27679 0,-4.62317 3.43631,-8.35714 7.69092,-8.35714 z"
       id="path3689-7-1-5-3-9-4" />
    <path
       inkscape:connector-curvature="0"
       id="path3689-7-1-2-1-2-3"
       d="m 149.6512,356.51479 c 0,1.77518 -1.32438,3.21428 -2.95805,3.21428 -1.63369,0 -2.95804,-1.4391 -2.95804,-3.21428 0,-1.77521 1.32435,-3.21429 2.95804,-3.21429 1.63367,0 2.95805,1.43908 2.95805,3.21429 z"
       style="color:#000000;fill:#000000;fill-opacity:1;stroke:none;stroke-width:1;marker:none;visibility:visible;display:inline;overflow:visible;enable-background:accumulate" />
    <path
       inkscape:connector-curvature="0"
       id="path3689-7-1-2-3-8-5-2"
       d="m 155.56729,388.65764 c 0,1.77519 -1.32437,3.21429 -2.95804,3.21429 -1.6337,0 -2.95805,-1.4391 -2.95805,-3.21429 0,-1.77521 1.32435,-3.21428 2.95805,-3.21428 1.63367,0 2.95804,1.43907 2.95804,3.21428 z"
       style="color:#000000;fill:#000000;fill-opacity:1;stroke:none;stroke-width:1;marker:none;visibility:visible;display:inline;overflow:visible;enable-background:accumulate" />
    <path
       inkscape:connector-curvature="0"
       style="color:#000000;fill:#6ceb29;fill-opacity:1;fill-rule:evenodd;stroke:none;stroke-width:3.75;marker:none;visibility:visible;display:inline;overflow:visible;enable-background:accumulate"
       d="m 206.2978,314.72905 c -11.89384,0 -23.22765,4.91307 -32.39062,12.85714 l 0,90 c 9.16297,7.94407 20.49678,12.85714 32.39062,12.85714 l 12.7196,0 0,-115.71428 -12.7196,0 z"
       id="path2824-5-4-2-0-8" />
    <path
       inkscape:connector-curvature="0"
       style="color:#000000;fill:#6cb229;fill-opacity:1;fill-rule:evenodd;stroke:none;stroke-width:3.75;marker:none;visibility:visible;display:inline;overflow:visible;enable-background:accumulate"
       d="m 249.3745,304.73519 c -22.98412,6.18365 -41.56056,29.78844 -41.56056,56.25 0,26.46162 18.57644,50.06636 41.56056,56.25 l 0,-7.07142 c -15.34126,-10.40125 -26.17871,-28.97561 -26.17871,-49.17858 0,-20.20294 10.83745,-38.77732 26.17871,-49.17857 l 0,-7.07143 z"
       id="path2824-5-4-5-1-2-21-5-7" />
    <path
       inkscape:connector-curvature="0"
       id="path2824-3-7"
       d="m 103.75364,630.41579 c 0,31.7476 -21.679236,57.48411 -48.421898,57.48411 -26.742708,0 -48.421926,-25.73651 -48.421926,-57.48411 0,-31.74758 21.679218,-57.48408 48.421926,-57.48408 26.742662,0 48.421898,25.7365 48.421898,57.48408 z"
       style="color:#000000;fill:#56d829;fill-opacity:1;fill-rule:evenodd;stroke:none;stroke-width:3.75;marker:none;visibility:visible;display:inline;overflow:visible;enable-background:accumulate" />
    <path
       inkscape:connector-curvature="0"
       style="font-size:medium;font-style:normal;font-variant:normal;font-weight:normal;font-stretch:normal;text-indent:0;text-align:start;text-decoration:none;line-height:normal;letter-spacing:normal;word-spacing:normal;text-transform:none;direction:ltr;block-progression:tb;writing-mode:lr-tb;text-anchor:start;color:#000000;fill:#ff4f00;fill-opacity:1;stroke:none;stroke-width:2.20000005;marker:none;visibility:visible;display:inline;overflow:visible;enable-background:accumulate;font-family:Andale Mono;-inkscape-font-specification:Andale Mono"
       d="m 30.97348,617.55865 c 3.885809,0 7.1146,-3.45893 7.1146,-7.68135 0,-4.22241 -3.228791,-7.68134 -7.1146,-7.68134 -3.885807,0 -7.068997,3.45893 -7.068997,7.68134 0,4.22242 3.18319,7.68135 7.068997,7.68135 z m 0,-3.46899 c -2.150642,0 -3.830953,-1.87542 -3.830953,-4.21236 0,-2.33694 1.680311,-4.16278 3.830953,-4.16278 2.150642,0 3.876556,1.82584 3.876556,4.16278 0,2.33694 -1.725914,4.21236 -3.876556,4.21236 z"
       id="path3689-6-4" />
    <path
       inkscape:connector-curvature="0"
       style="font-size:medium;font-style:normal;font-variant:normal;font-weight:normal;font-stretch:normal;text-indent:0;text-align:start;text-decoration:none;line-height:normal;letter-spacing:normal;word-spacing:normal;text-transform:none;direction:ltr;block-progression:tb;writing-mode:lr-tb;text-anchor:start;color:#000000;fill:#ff4f00;fill-opacity:1;stroke:none;stroke-width:2.20000005;marker:none;visibility:visible;display:inline;overflow:visible;enable-background:accumulate;font-family:Andale Mono;-inkscape-font-specification:Andale Mono"
       d="m 31.019271,643.27293 c -3.919127,0 -7.175606,3.48858 -7.175606,7.74723 0,4.25864 3.256479,7.74722 7.175606,7.74722 3.919152,0 7.129626,-3.48858 7.129626,-7.74722 0,-4.25865 -3.210474,-7.74723 -7.129626,-7.74723 z m 0,3.49874 c 2.1691,0 3.863801,1.89152 3.863801,4.24849 0,2.35697 -1.694701,4.1985 -3.863801,4.1985 -2.169077,0 -3.90978,-1.84153 -3.90978,-4.1985 0,-2.35697 1.740703,-4.24849 3.90978,-4.24849 z"
       id="path3689-7-0-3" />
    <path
       sodipodi:type="arc"
       style="fill:#37de00;fill-opacity:1;stroke:#318b1d;stroke-width:2.34844089;stroke-linecap:butt;stroke-linejoin:miter;stroke-miterlimit:4;stroke-opacity:1;stroke-dasharray:none"
       id="path2985-9-8-2-1-4-3"
       sodipodi:cx="110"
       sodipodi:cy="122.36218"
       sodipodi:rx="44.285713"
       sodipodi:ry="44.285713"
       d="m 154.28571,122.36218 a 44.285713,44.285713 0 1 1 -88.571423,0 44.285713,44.285713 0 1 1 88.571423,0 z"
       transform="matrix(1.3349282,0,0,1.3349282,53.136536,337.14271)" />
    <path
       inkscape:connector-curvature="0"
       id="path2824-5-6-8-0-5-3"
       d="m 176.19142,629.63328 c 0,21.30241 -10.47795,38.57143 -23.40313,38.57143 -12.92518,0 -23.4031,-17.26902 -23.4031,-38.57143 0,-21.30241 10.47792,-38.57143 23.4031,-38.57143 12.92518,0 23.40313,17.26902 23.40313,38.57143 z"
       style="color:#000000;fill:#6cb229;fill-opacity:1;fill-rule:evenodd;stroke:none;stroke-width:3.75;marker:none;visibility:visible;display:inline;overflow:visible;enable-background:accumulate" />
    <path
       inkscape:connector-curvature="0"
       id="path2824-5-9-3-8-6"
       d="m 203.28393,629.63328 c 0,27.25701 -14.7159,49.3532 -32.86887,49.3532 -18.15297,0 -32.86886,-22.09619 -32.86886,-49.3532 0,-27.25699 14.71589,-49.35315 32.86886,-49.35315 18.15297,0 32.86887,22.09616 32.86887,49.35315 z"
       style="color:#000000;fill:#56d829;fill-opacity:1;fill-rule:evenodd;stroke:none;stroke-width:3.75;marker:none;visibility:visible;display:inline;overflow:visible;enable-background:accumulate" />
    <path
       inkscape:connector-curvature="0"
       style="font-size:medium;font-style:normal;font-variant:normal;font-weight:normal;font-stretch:normal;text-indent:0;text-align:start;text-decoration:none;line-height:normal;letter-spacing:normal;word-spacing:normal;text-transform:none;direction:ltr;block-progression:tb;writing-mode:lr-tb;text-anchor:start;color:#000000;fill:#000000;fill-opacity:1;fill-rule:nonzero;stroke:none;stroke-width:1;marker:none;visibility:visible;display:inline;overflow:visible;enable-background:accumulate;font-family:Andale Mono;-inkscape-font-specification:Andale Mono"
       d="m 176.63512,599.45193 c -5.53353,0 -10.05736,4.9157 -10.05736,10.92858 0,6.01287 4.52383,10.84821 10.05736,10.84821 5.53354,0 10.05736,-4.83534 10.05736,-10.84821 0,-6.01288 -4.52382,-10.92858 -10.05736,-10.92858 z m 0,2.57143 c 4.25462,0 7.69093,3.73397 7.69093,8.35715 0,4.62317 -3.43631,8.27678 -7.69093,8.27678 -4.25461,0 -7.69092,-3.65361 -7.69092,-8.27678 0,-4.62318 3.43631,-8.35715 7.69092,-8.35715 z"
       id="path3689-7-1-22-0-2-9" />
    <path
       inkscape:connector-curvature="0"
       style="font-size:medium;font-style:normal;font-variant:normal;font-weight:normal;font-stretch:normal;text-indent:0;text-align:start;text-decoration:none;line-height:normal;letter-spacing:normal;word-spacing:normal;text-transform:none;direction:ltr;block-progression:tb;writing-mode:lr-tb;text-anchor:start;color:#000000;fill:#000000;fill-opacity:1;fill-rule:nonzero;stroke:none;stroke-width:1;marker:none;visibility:visible;display:inline;overflow:visible;enable-background:accumulate;font-family:Andale Mono;-inkscape-font-specification:Andale Mono"
       d="m 176.63512,638.02336 c -5.53353,0 -10.05736,4.9157 -10.05736,10.92857 0,6.01288 4.52383,10.84822 10.05736,10.84822 5.53354,0 10.05736,-4.83534 10.05736,-10.84822 0,-6.01287 -4.52382,-10.92857 -10.05736,-10.92857 z m 0,2.57143 c 4.25462,0 7.69093,3.73397 7.69093,8.35714 0,4.62318 -3.43631,8.27679 -7.69093,8.27679 -4.25461,0 -7.69092,-3.65361 -7.69092,-8.27679 0,-4.62317 3.43631,-8.35714 7.69092,-8.35714 z"
       id="path3689-7-1-5-3-9-4-4" />
    <path
       inkscape:connector-curvature="0"
       id="path3689-7-1-2-1-2-3-6"
       d="m 176.66151,613.56188 c 0,1.77518 -1.32438,3.21428 -2.95805,3.21428 -1.63369,0 -2.95804,-1.4391 -2.95804,-3.21428 0,-1.77521 1.32435,-3.21429 2.95804,-3.21429 1.63367,0 2.95805,1.43908 2.95805,3.21429 z"
       style="color:#000000;fill:#000000;fill-opacity:1;stroke:none;stroke-width:1;marker:none;visibility:visible;display:inline;overflow:visible;enable-background:accumulate" />
    <path
       inkscape:connector-curvature="0"
       id="path3689-7-1-2-3-8-5-2-7"
       d="m 182.5776,645.70473 c 0,1.77519 -1.32437,3.21429 -2.95804,3.21429 -1.6337,0 -2.95805,-1.4391 -2.95805,-3.21429 0,-1.77521 1.32435,-3.21428 2.95805,-3.21428 1.63367,0 2.95804,1.43907 2.95804,3.21428 z"
       style="color:#000000;fill:#000000;fill-opacity:1;stroke:none;stroke-width:1;marker:none;visibility:visible;display:inline;overflow:visible;enable-background:accumulate" />
    <path
       inkscape:connector-curvature="0"
       style="color:#000000;fill:#6cb229;fill-opacity:1;fill-rule:evenodd;stroke:none;stroke-width:3.75;marker:none;visibility:visible;display:inline;overflow:visible;enable-background:accumulate"
       d="m 200.15213,559.24548 c 0,0 -50.17525,-5.91974 -50.17525,-59.71541 0,-53.79566 49.73723,-58.26733 49.73723,-58.26733 0,0 -29.47633,22.8648 -29.20012,58.77237 0.27622,35.90757 29.63814,59.21037 29.63814,59.21037 z"
       id="path2824-5-4-5-17-4-7-9"
       sodipodi:nodetypes="czczc" />
    <path
       sodipodi:type="arc"
       style="fill:#56d829;fill-opacity:1;stroke:none"
       id="afdsfsdf"
       sodipodi:cx="110"
       sodipodi:cy="122.36218"
       sodipodi:rx="44.285713"
       sodipodi:ry="44.285713"
       d="m 154.28571,122.36218 a 44.285713,44.285713 0 1 1 -88.571423,0 44.285713,44.285713 0 1 1 88.571423,0 z"
       transform="matrix(1.1672765,0,0,1.2011474,213.17771,465.69421)"
       inkscape:label="#path2985-9-8-2-1-4-3-84" />
    <path
       inkscape:connector-curvature="0"
       style="color:#000000;fill:#6cb229;fill-opacity:1;fill-rule:evenodd;stroke:none;stroke-width:3.75;marker:none;visibility:visible;display:inline;overflow:visible;enable-background:accumulate"
       d="m 347.32974,664.73432 c 0,0 -47.67525,-5.26747 -47.67525,-53.13563 0,-47.86816 47.25905,-51.84711 47.25905,-51.84711 0,0 -28.00765,20.34542 -27.7452,52.2965 0.26245,31.95107 28.1614,52.68624 28.1614,52.68624 z"
       id="path2824-5-4-5-17-4-7-9-2"
       sodipodi:nodetypes="czczc" />
    <path
       inkscape:connector-curvature="0"
       style="color:#000000;fill:#6cb229;fill-opacity:1;fill-rule:evenodd;stroke:none;stroke-width:3.75;marker:none;visibility:visible;display:inline;overflow:visible;enable-background:accumulate"
       d="m 371.33763,654.35355 c 0,0 -35.67525,-4.28907 -35.67525,-43.26596 0,-38.9769 35.3638,-42.21678 35.3638,-42.21678 0,0 -20.95804,16.56636 -20.76164,42.5827 0.19639,26.01632 21.07309,42.90004 21.07309,42.90004 z"
       id="path2824-5-4-5-17-4-7-9-2-0"
       sodipodi:nodetypes="czczc" />
    <text
       xml:space="preserve"
       style="font-size:12.74592304px;font-style:normal;font-weight:normal;line-height:125%;letter-spacing:0px;word-spacing:0px;fill:#000000;fill-opacity:1;stroke:none;font-family:Sans;-inkscape-font-specification:Sans"
       x="60.030434"
       y="779.58185"
       id="text3872"
       sodipodi:linespacing="125%"><tspan
         sodipodi:role="line"
         id="tspan3874"
         x="60.030434"
         y="779.58185">Use shift+pgup/down to change layer</tspan></text>
  </g>
  <g
     inkscape:groupmode="layer"
     id="layer2"
     inkscape:label="hidden"
     style="opacity:0.87999998;display:none">
    <path
       sodipodi:type="arc"
       style="fill:none;stroke:#0000ff;stroke-width:1.00005376;stroke-linecap:butt;stroke-linejoin:miter;stroke-miterlimit:4;stroke-opacity:1;stroke-dasharray:none"
       id="head"
       sodipodi:cx="110"
       sodipodi:cy="122.36218"
       sodipodi:rx="44.285713"
       sodipodi:ry="44.285713"
       d="m 154.28571,122.36218 a 44.285713,44.285713 0 1 1 -88.571423,0 44.285713,44.285713 0 1 1 88.571423,0 z"
       transform="matrix(1.3349282,0,0,1.3349282,37.714305,470.26936)"
       inkscape:label="#path2985-9-8-2-1-4-3-8" />
    <path
       sodipodi:type="arc"
       style="fill:none;stroke:#0000ff;stroke-width:1.00005376;stroke-linecap:butt;stroke-linejoin:miter;stroke-miterlimit:4;stroke-opacity:1;stroke-dasharray:none;display:inline"
       id="body"
       sodipodi:cx="110"
       sodipodi:cy="122.36218"
       sodipodi:rx="44.285713"
       sodipodi:ry="44.285713"
       d="m 154.28571,122.36218 a 44.285713,44.285713 0 1 1 -88.571423,0 44.285713,44.285713 0 1 1 88.571423,0 z"
       transform="matrix(1.3181818,0,0,1.3181818,201.66645,455.26144)"
       inkscape:label="#path2985-9-8-2-1-4-3-84" />
    <path
       transform="translate(5.838332,3.1378133)"
       inkscape:connector-curvature="0"
       style="fill:none;stroke:#0000ff;stroke-width:1px;stroke-linecap:butt;stroke-linejoin:miter;stroke-opacity:1;display:inline"
       d="m 112.89815,630.47628 c 0,32.65011 -26.468136,59.11825 -59.118232,59.11825 -32.650109,0 -59.11825,-26.46814 -59.11825,-59.11825 0,-32.65011 26.468141,-59.11825 59.11825,-59.11825 32.650096,0 59.118232,26.46814 59.118232,59.11825 z"
       id="nose"
       inkscape:label="#path2985-9-8-2-1-2-1" />
  </g>
</svg>
